# xmcd
#
# Track frame offsets:
#	150
#	12321
#	31065
#	56605
#	120675
#	142997
#	162579
#	207837
#
# Disc length: 3093 seconds
#
# Revision: 2
# Processed by: cddbd v1.5.1PL2 Copyright (c) Steve Scherf et al.
# Submitted via: EasyCDDAExtractor 8.0.2.1
#
DISCID=670c1308
DTITLE=Dio - Civic Auditorium San Jose 20-09-90 Disc 1
DYEAR=1990
DGENRE=Hard Rock
TTITLE0=Intro
TTITLE1=Wild One
TTITLE2=Children Of The Sea
TTITLE3=Rainbow Medley
TTITLE4=Born On The Sun
TTITLE5=Stand Up And Shout
TTITLE6=Why Are They Watching Me
TTITLE7=Don't Talk To Strangers
EXTD=
EXTT0=
EXTT1=
EXTT2=
EXTT3=
EXTT4=
EXTT5=
EXTT6=
EXTT7=
PLAYORDER=
